# xmcd CD database file
#
# Track frame offsets:
#	150
#	22762
#	47307
#	67115
#	90555
#	114580
#	135015
#	156987
#	175480
#	195847
#
# Disc length: 2952 seconds
#
# Revision: 0
# Processed by: cddbd v1.5PL3 Copyright (c) Steve Scherf et al.
# Submitted via: CDex 1.51
#
DISCID=710b860a
DTITLE=桑名正博 - IT'S ONLY LOVE
DYEAR=1900
DGENRE=R&B
TTITLE0=TRICK TOWN
TTITLE1=IT'S ONLY LOVE
TTITLE2=THE TRUE HEARTS
TTITLE3=彼奴（あいつ）
TTITLE4=月のあかり
TTITLE5=UPPER
TTITLE6=愛しのレイラ
TTITLE7=IN THE WIND
TTITLE8=レイダウン・ベイサイド
TTITLE9=やりきれないけど
EXTD=
EXTT0=
EXTT1=
EXTT2=
EXTT3=
EXTT4=
EXTT5=
EXTT6=
EXTT7=
EXTT8=
EXTT9=
PLAYORDER=
